<svg xmlns="http://www.w3.org/2000/svg" xmlns:xlink="http://www.w3.org/1999/xlink"><defs><symbol id="icon" viewBox="0 0 24 24"><path fill="none" stroke="currentColor" stroke-width="var(--icones-stroke-width, 2)" stroke-linecap="round" stroke-linejoin="round" d="M16 3v2.107"/><path fill="none" stroke="currentColor" stroke-width="var(--icones-stroke-width, 2)" stroke-linecap="round" stroke-linejoin="round" d="M17 9c1 3 2.5 3.5 3.5 4.5A5 5 0 0 1 22 17a5 5 0 0 1-10 0c0-.3 0-.6.1-.9a2 2 0 1 0 3.3-2C13 11.5 16 9 17 9"/><path fill="none" stroke="currentColor" stroke-width="var(--icones-stroke-width, 2)" stroke-linecap="round" stroke-linejoin="round" d="M21 8.274V5a2 2 0 0 0-2-2H5a2 2 0 0 0-2 2v14a2 2 0 0 0 2 2h3.938"/><path fill="none" stroke="currentColor" stroke-width="var(--icones-stroke-width, 2)" stroke-linecap="round" stroke-linejoin="round" d="M3 15h5.253"/><path fill="none" stroke="currentColor" stroke-width="var(--icones-stroke-width, 2)" stroke-linecap="round" stroke-linejoin="round" d="M3 9h8.228"/><path fill="none" stroke="currentColor" stroke-width="var(--icones-stroke-width, 2)" stroke-linecap="round" stroke-linejoin="round" d="M8 15v6"/><path fill="none" stroke="currentColor" stroke-width="var(--icones-stroke-width, 2)" stroke-linecap="round" stroke-linejoin="round" d="M8 3v6"/></symbol></defs></svg>
