<svg xmlns="http://www.w3.org/2000/svg" xmlns:xlink="http://www.w3.org/1999/xlink"><defs><symbol id="icon" viewBox="0 0 24 24"><g transform="scale(0.09375)" style="--icones-remote-stroke-width:calc(var(--icones-stroke-width) / 0.09375)"><rect fill="none" width="256" height="256"/><path fill="none" d="M93.65,35.76A8,8,0,0,1,100.43,32h55.14a8,8,0,0,1,6.78,3.76l68.43,112.18a8,8,0,0,1,.17,8.21L203.62,204a8,8,0,0,1-6.94,4H59.32a8,8,0,0,1-6.94-4L25.05,156.15a8,8,0,0,1,.17-8.21Z" stroke="currentColor" stroke-linecap="round" stroke-linejoin="round" stroke-width="var(--icones-remote-stroke-width, var(--icones-stroke-width, 16))"/><line fill="none" x1="55.12" y1="206.8" x2="159.41" y2="32.98" stroke="currentColor" stroke-linecap="round" stroke-linejoin="round" stroke-width="var(--icones-remote-stroke-width, var(--icones-stroke-width, 16))"/><line fill="none" x1="200.88" y1="206.8" x2="96.59" y2="32.98" stroke="currentColor" stroke-linecap="round" stroke-linejoin="round" stroke-width="var(--icones-remote-stroke-width, var(--icones-stroke-width, 16))"/><line fill="none" x1="24" y1="152" x2="232" y2="152" stroke="currentColor" stroke-linecap="round" stroke-linejoin="round" stroke-width="var(--icones-remote-stroke-width, var(--icones-stroke-width, 16))"/></g></symbol></defs></svg>
