<svg xmlns="http://www.w3.org/2000/svg" xmlns:xlink="http://www.w3.org/1999/xlink"><defs><symbol id="icon" viewBox="0 0 24 24"><path fill="none" stroke="currentColor" stroke-width="var(--icones-stroke-width, 2)" stroke-linecap="round" stroke-linejoin="round" d="M6 20.735a2 2 0 0 1 -1 -1.735v-14a2 2 0 0 1 2 -2h7l5 5v11a2 2 0 0 1 -2 2h-1"/><path fill="none" stroke="currentColor" stroke-width="var(--icones-stroke-width, 2)" stroke-linecap="round" stroke-linejoin="round" d="M11 17a2 2 0 0 1 2 2v2a1 1 0 0 1 -1 1h-2a1 1 0 0 1 -1 -1v-2a2 2 0 0 1 2 -2"/><path fill="none" stroke="currentColor" stroke-width="var(--icones-stroke-width, 2)" stroke-linecap="round" stroke-linejoin="round" d="M11 5l-1 0"/><path fill="none" stroke="currentColor" stroke-width="var(--icones-stroke-width, 2)" stroke-linecap="round" stroke-linejoin="round" d="M13 7l-1 0"/><path fill="none" stroke="currentColor" stroke-width="var(--icones-stroke-width, 2)" stroke-linecap="round" stroke-linejoin="round" d="M11 9l-1 0"/><path fill="none" stroke="currentColor" stroke-width="var(--icones-stroke-width, 2)" stroke-linecap="round" stroke-linejoin="round" d="M13 11l-1 0"/><path fill="none" stroke="currentColor" stroke-width="var(--icones-stroke-width, 2)" stroke-linecap="round" stroke-linejoin="round" d="M11 13l-1 0"/><path fill="none" stroke="currentColor" stroke-width="var(--icones-stroke-width, 2)" stroke-linecap="round" stroke-linejoin="round" d="M13 15l-1 0"/></symbol></defs></svg>
